<?xml version="1.0" encoding="UTF-8"?>
<!DOCTYPE svg PUBLIC "-//W3C//DTD SVG 1.1//EN" "http://www.w3.org/Graphics/SVG/1.1/DTD/svg11.dtd">
<!-- Creator: CorelDRAW 2020 (64 Bit) -->
<svg xmlns="http://www.w3.org/2000/svg" xml:space="preserve" width="199.89mm" height="129.391mm" version="1.1" style="shape-rendering:geometricPrecision; text-rendering:geometricPrecision; image-rendering:optimizeQuality; fill-rule:evenodd; clip-rule:evenodd"
viewBox="0 0 15437.74 9993.03"
 xmlns:xlink="http://www.w3.org/1999/xlink"
 xmlns:xodm="http://www.corel.com/coreldraw/odm/2003">
 <defs>
  <style type="text/css">
   <![CDATA[
    .fil0 {fill:#FEFEFE;fill-rule:nonzero}
   ]]>
  </style>
 </defs>
 <g id="Camada_x0020_1">
  <metadata id="CorelCorpID_0Corel-Layer"/>
  <path class="fil0" d="M9007.72 3479.01c210.85,-12.16 399.39,-18.24 565.64,-18.24 -48.66,141.91 -97.31,283.83 -145.97,425.75 -48.66,141.91 -105.42,289.92 -170.29,443.99l-66.91 145.97 -66.91 103.4 -115.56 225.04c-68.93,150.02 -148,297.01 -237.21,440.96 -89.2,143.94 -184.49,282.82 -285.86,416.62 -28.38,32.44 -55.75,67.92 -82.1,106.44 -26.36,38.52 -57.78,74 -94.28,106.44 -12.16,12.16 -26.36,27.37 -42.58,45.61 -16.22,18.25 -30.41,33.46 -42.57,45.62l-72.99 36.49 -103.4 66.91c-72.98,44.6 -144.96,87.18 -215.92,127.72 -70.96,40.55 -142.93,79.07 -215.92,115.56 -145.97,77.05 -289.92,153.07 -431.84,228.09 -141.92,75.01 -281.81,153.06 -419.67,234.16 -579.84,291.95 -1154.6,581.87 -1724.29,869.75 -569.7,287.89 -1142.44,575.78 -1718.22,863.67 -490.63,235.18 -933.62,446.03 -1328.96,632.55 -395.34,186.52 -722.77,340.6 -982.27,462.24 0,4.05 -3.04,8.11 -9.12,12.16 -6.09,4.05 -11.15,10.13 -15.21,18.25 0,0 2.02,-2.03 6.08,-6.09l0 -6.09c-8.11,8.11 -12.16,12.17 -12.16,12.17l-6.08 0 -12.16 0c8.11,0 8.11,2.02 0,6.08 -8.11,4.05 -14.2,6.09 -18.25,6.09 -8.11,0 -13.18,2.02 -15.21,6.08 -2.02,4.05 -7.09,8.11 -15.21,12.16 8.12,0 12.17,-3.04 12.17,-9.12 0,-6.09 2.02,-5.07 6.08,3.04 -52.71,28.38 -103.4,55.75 -152.05,82.1 -48.66,26.36 -101.37,53.73 -158.14,82.11 -20.27,8.11 -44.6,19.26 -72.98,33.45 -28.38,14.2 -52.72,25.35 -72.99,33.46 8.11,-4.05 14.2,-6.09 18.25,-6.09 4.05,0 10.13,-4.05 18.24,-12.16 12.17,-8.11 26.36,-15.21 42.58,-21.28 16.22,-6.09 28.38,-13.18 36.49,-21.29 -40.55,20.28 -81.09,39.53 -121.64,57.78 -40.55,18.25 -85.16,35.48 -133.81,51.7 24.33,-8.11 47.64,-17.23 69.95,-27.37 22.3,-10.13 39.53,-19.26 51.7,-27.37 16.22,-8.11 31.43,-16.22 45.61,-24.33 14.2,-8.11 29.4,-14.19 45.62,-18.24l-12.16 0c0,-8.12 2.02,-12.17 6.08,-12.17 4.05,0 2.03,0 -6.08,0l-12.16 12.17 12.16 0 -12.16 0c-8.11,0 -13.18,3.04 -15.21,9.12 -2.03,6.08 -9.13,9.12 -21.29,9.12l0 -12.16 0 12.16 -12.16 0c-8.11,0 -18.24,4.05 -30.41,12.16 -12.16,8.11 -22.3,14.2 -30.41,18.25 12.16,-12.16 22.3,-18.25 30.41,-18.25l-12.16 0c-8.11,8.11 -16.22,12.16 -24.34,12.16 -8.11,0 -16.22,2.03 -24.33,6.09 -12.16,4.05 -24.33,8.11 -36.49,12.16 -12.16,4.05 -22.3,6.08 -30.41,6.08l-6.09 0c4.05,0 6.09,-4.05 6.09,-12.16l-6.09 12.16 0 -12.16c-8.11,0 -16.22,4.05 -24.33,12.16 -8.11,8.11 -18.25,12.16 -30.41,12.16 0,-8.11 2.03,-12.16 6.09,-12.16l6.08 0c-28.38,8.11 -57.78,18.25 -88.19,30.41 -30.41,12.16 -61.83,26.36 -94.28,42.58 -8.11,0 -13.18,2.02 -15.2,6.08 -2.03,4.05 -7.1,2.03 -15.21,-6.08l12.16 0c-28.38,0 -50.69,4.05 -66.91,12.16 8.11,-8.11 17.23,-12.16 27.37,-12.16 10.13,0 15.21,-4.05 15.21,-12.16l-6.09 0c4.05,-8.11 8.11,-12.16 12.16,-12.16 4.05,0 6.09,-2.03 6.09,-6.09l0 6.09c24.33,-8.11 42.57,-18.25 54.74,-30.41 12.16,0 24.33,-6.09 36.49,-18.25 8.11,-8.11 19.26,-13.18 33.45,-15.2 14.2,-2.03 25.34,-5.07 33.46,-9.13 24.33,-12.16 54.73,-24.33 91.23,-36.49 8.12,-8.11 12.17,-14.2 12.17,-18.25l0 6.09c0,0 -2.03,-2.03 -6.09,-6.09l6.09 0 -6.09 0c8.11,-8.11 24.33,-18.24 48.66,-30.41 12.16,-4.05 22.3,-7.1 30.41,-9.12 8.11,-2.03 16.22,-9.13 24.33,-21.29l-24.33 24.33c-8.11,0 -16.22,1.02 -24.33,3.04 -8.11,2.03 -18.25,3.04 -30.41,3.04 -36.49,20.27 -89.2,44.6 -158.14,72.98l18.25 -18.24 6.08 -6.09c-24.33,12.16 -48.66,23.32 -72.98,33.45 -24.33,10.14 -48.66,19.26 -72.98,27.37 0,-8.11 2.02,-12.16 6.08,-12.16l12.16 0c8.11,-4.05 17.24,-7.09 27.37,-9.12 10.14,-2.02 21.29,-7.1 33.46,-15.21l0 -12.16c24.33,-8.11 54.73,-19.26 91.23,-33.45 36.49,-14.2 70.95,-29.4 103.4,-45.62 4.05,-8.11 13.18,-15.21 27.36,-21.28 14.2,-6.09 25.35,-13.18 33.46,-21.28l12.16 0c4.05,0 10.13,-4.05 18.25,-12.17l24.33 -12.16c0,-8.11 0,-10.13 0,-6.08 0,4.05 2.02,6.08 6.08,6.08l0 -12.16 6.09 0c0,-8.11 -1.02,-10.13 -3.04,-6.08 -2.03,4.05 -1.01,6.08 3.04,6.08 68.93,-32.44 134.82,-65.89 197.67,-100.35 62.85,-34.47 128.74,-65.89 197.67,-94.28 129.76,-85.15 274.71,-174.35 434.88,-267.61 160.16,-93.26 324.38,-186.52 492.65,-279.78 168.28,-93.26 332.5,-181.45 492.66,-264.58 160.17,-83.12 302.08,-157.12 425.76,-222 123.67,-64.87 224.02,-116.57 301.06,-155.1 77.05,-38.52 115.56,-57.78 115.56,-57.78 579.84,-300.06 1154.61,-600.11 1724.3,-900.17 569.7,-300.05 1142.43,-606.19 1718.22,-918.41 141.92,-77.04 281.81,-154.08 419.67,-231.12 137.87,-77.04 279.78,-152.05 425.75,-225.04 68.93,-44.61 137.87,-88.2 206.79,-130.77 68.93,-42.58 139.89,-86.17 212.88,-130.77l97.31 -60.83 36.49 -36.49c24.33,-4.05 36.49,-12.16 36.49,-24.33 28.39,-20.27 52.72,-47.64 72.99,-82.11 20.27,-34.46 42.57,-65.89 66.91,-94.27 101.37,-125.7 192.6,-256.47 273.69,-392.3 81.1,-135.83 160.17,-276.74 237.21,-422.71 32.44,-68.94 63.86,-139.89 94.28,-212.88 30.41,-72.98 59.81,-143.94 88.19,-212.87 16.22,-40.55 30.41,-82.11 42.58,-124.69 12.16,-42.57 26.35,-80.08 42.57,-112.52 -20.27,0 -45.61,1.01 -76.03,3.04 -30.41,2.02 -59.81,7.1 -88.19,15.21l-176.38 12.16 -602.14 85.15 -1350.24 176.38 -85.16 -285.86 -66.91 -225.04 -103.4 -371.01c-32.44,-129.76 -61.83,-255.46 -88.19,-377.1 -26.35,-121.65 -51.7,-247.35 -76.03,-377.1 -32.44,-129.76 -59.81,-257.48 -82.11,-383.18 -22.3,-125.69 -45.61,-251.4 -69.94,-377.09 -8.11,-68.94 -14.2,-135.84 -18.25,-200.72 -4.05,-64.87 -8.11,-133.81 -12.16,-206.79l-12.16 -91.23 0 -109.48c-8.11,-56.77 -10.13,-112.53 -6.08,-167.26 4.05,-54.74 6.08,-110.49 6.08,-167.27l553.48 -231.12 419.67 -170.3c129.76,-56.76 266.6,-109.48 410.55,-158.13 143.94,-48.66 288.91,-97.32 434.88,-145.97 68.93,-28.38 139.89,-51.7 212.87,-69.95 72.98,-18.24 150.03,-37.5 231.12,-57.78 40.55,-12.16 80.08,-21.29 118.6,-27.37 38.52,-6.09 80.08,-15.21 124.68,-27.37 24.34,0 49.68,-2.02 76.03,-6.08 26.35,-4.05 51.7,-6.09 76.03,-6.09 24.33,0 50.68,1.01 79.07,3.04 28.38,2.02 70.95,13.18 127.72,33.45 12.16,0 24.33,6.09 36.49,18.25l30.41 12.16c8.11,4.05 20.27,14.19 36.49,30.41 8.11,8.12 18.24,17.24 30.41,27.37 12.16,10.14 14.2,15.21 6.09,15.21l12.16 0 24.33 36.49 36.49 60.83 60.83 97.31c24.33,40.55 46.62,76.03 66.9,106.44 20.27,30.41 38.52,61.83 54.74,94.28 32.44,77.04 64.87,150.02 97.32,218.96 32.44,68.93 64.87,137.86 97.31,206.79 48.66,129.75 81.1,232.13 97.32,307.15 16.22,75.01 22.3,134.82 18.24,179.42 4.05,8.11 6.09,17.23 6.09,27.37 0,10.14 4.05,19.26 12.16,27.37 8.11,24.33 15.21,54.74 21.28,91.23 6.09,36.49 9.12,66.91 9.12,91.23 -8.11,-8.11 -12.16,-16.22 -12.16,-24.33 0,-8.11 0,-16.22 0,-24.33 -4.05,-28.39 -14.19,-60.83 -30.41,-97.32 8.11,48.66 17.23,100.35 27.37,155.1 10.13,54.74 19.25,110.49 27.36,167.26 -16.22,-28.38 -25.34,-55.75 -27.36,-82.1 -2.03,-26.36 -7.1,-49.68 -15.21,-69.95l-18.25 0c8.11,-24.33 7.1,-44.6 -3.04,-60.82 -10.13,-16.22 -19.25,-34.47 -27.36,-54.74l0 12.16c0,0 -4.05,0 -12.17,0 4.05,0 6.09,2.02 6.09,6.08 4.05,0 5.07,-1.01 3.04,-3.04 -2.03,-2.03 -1.01,-3.04 3.04,-3.04 8.11,4.05 10.13,6.08 6.08,6.08 -4.05,0 -8.11,4.05 -12.16,12.17 -4.05,8.11 0,13.18 12.16,15.2 12.16,2.03 14.2,9.13 6.09,21.29l-12.16 0 0 6.08c0,4.05 0,6.09 0,6.09 8.11,0 10.13,0 6.08,0 -4.05,0 -2.02,-4.05 6.09,-12.16 0,16.22 -6.09,24.33 -18.25,24.33 0,12.16 1.01,26.35 3.04,42.58 2.02,16.22 3.04,30.41 3.04,42.57 -4.05,0 -7.1,-4.05 -9.13,-12.16 -2.02,-8.11 -3.04,-16.22 -3.04,-24.33 -8.11,20.27 -10.13,34.47 -6.08,42.58 4.05,8.11 8.11,18.24 12.16,30.41 -8.11,20.28 -9.12,37.51 -3.04,51.7 6.09,14.2 5.07,27.37 -3.04,39.53 -8.11,8.11 -11.14,8.11 -9.12,0 2.03,-8.11 -3.04,-8.11 -15.21,0l6.09 6.09c0,4.05 -2.03,6.08 -6.09,6.08 0,-8.11 -4.05,-12.16 -12.16,-12.16l6.09 6.09c0,4.05 -2.03,6.08 -6.09,6.08l-6.08 0c-8.11,8.11 -10.14,16.23 -6.09,24.34 4.05,8.11 2.03,16.22 -6.08,24.33l-18.25 0c8.11,32.44 12.16,67.92 12.16,106.43 0,38.52 2.03,78.06 6.09,118.6 -8.11,8.11 -11.15,12.16 -9.13,12.16 2.03,0 -1.01,4.05 -9.12,12.16l-12.16 0c-28.38,28.39 -44.6,54.74 -48.66,79.07 0,-8.11 0,-17.23 0,-27.37 0,-10.13 -4.05,-19.25 -12.16,-27.36 -8.11,0 -10.14,0 -6.09,0 4.05,0 2.03,4.05 -6.08,12.16 -8.11,-8.11 -10.14,-14.2 -6.09,-18.25 4.05,-4.05 2.03,-10.14 -6.08,-18.25 -8.11,0 -10.14,2.03 -6.09,6.09 4.05,4.05 2.03,6.08 -6.08,6.08 -8.11,-12.16 -9.13,-24.33 -3.04,-36.49 6.08,-12.16 3.04,-26.35 -9.12,-42.57 20.27,-8.11 25.34,-14.2 15.2,-18.25 -10.13,-4.05 -17.23,-10.14 -21.28,-18.25 -8.11,-16.22 -12.16,-31.43 -12.16,-45.61 0,-14.2 -4.05,-29.39 -12.16,-45.62 -8.11,-16.22 -12.16,-34.46 -12.16,-54.73 0,-20.27 0,-36.5 0,-48.66 -8.11,0 -9.12,-4.05 -3.04,-12.16 6.09,-8.11 1.01,-12.16 -15.21,-12.16l0 12.16c-8.11,8.11 -10.13,10.14 -6.08,6.09 4.05,-4.05 2.02,-6.09 -6.09,-6.09l0 12.16c-4.05,-12.16 -8.11,-25.34 -12.16,-39.53 -4.05,-14.19 -6.08,-27.36 -6.08,-39.53 -8.11,-12.17 -11.15,-24.34 -9.13,-36.5 2.03,-12.16 -7.1,-20.27 -27.37,-24.33 0,4.05 2.03,7.1 6.09,9.13 4.05,2.02 6.08,7.09 6.08,15.2 -12.16,8.11 -15.2,17.24 -9.12,27.37 6.09,10.14 9.12,21.29 9.12,33.46 0,32.44 5.07,65.89 15.21,100.35 10.14,34.47 9.13,69.94 -3.04,106.44 -8.11,-8.11 -13.18,-16.22 -15.2,-24.33 -2.03,-8.11 -9.13,-16.23 -21.29,-24.34 8.11,32.44 14.2,65.89 18.25,100.36 4.05,34.46 6.08,65.89 6.08,94.27 -12.16,0 -18.24,-2.02 -18.24,-6.08l6.08 -6.09 -12.16 0c-4.05,-12.16 -5.07,-26.35 -3.04,-42.57 2.02,-16.22 1.01,-28.39 -3.04,-36.5l-12.16 0c-20.27,-36.49 -30.41,-78.05 -30.41,-124.68 0,-46.63 -8.11,-86.17 -24.33,-118.6 -4.05,-8.11 -10.14,-20.27 -18.25,-36.49 -8.11,-16.22 -16.22,-34.47 -24.33,-54.74l0 -36.49c0,-12.16 -2.02,-22.3 -6.08,-30.41 -4.05,4.05 -8.11,6.09 -12.16,6.09 -4.05,0 -4.05,-2.03 0,-6.09l12.16 0c-8.11,0 -10.14,-3.04 -6.09,-9.12 4.05,-6.08 2.03,-13.18 -6.08,-21.28 -8.11,0 -10.14,4.05 -6.09,12.16 4.05,8.11 2.03,8.11 -6.08,0 -20.28,-97.32 -45.62,-184.5 -76.03,-261.54 -30.41,-77.04 -61.83,-154.08 -94.27,-231.12 -20.27,-68.93 -45.62,-134.82 -76.03,-197.67 -30.41,-62.85 -59.81,-126.71 -88.2,-191.59 -16.22,-32.44 -30.41,-62.85 -42.57,-91.23 -12.16,-28.38 -26.36,-58.8 -42.58,-91.23l-18.25 -36.49c0,8.11 -8.11,12.16 -24.33,12.16 -32.44,0 -63.86,4.05 -94.27,12.16 -30.41,8.11 -61.84,16.22 -94.28,24.33 -68.93,16.22 -137.87,33.46 -206.79,51.7 -68.93,18.25 -135.83,35.48 -200.72,51.7 -137.86,44.6 -274.71,90.22 -410.55,136.85 -135.83,46.62 -274.71,92.24 -416.63,136.85l-401.42 158.14 -218.96 85.15 0 139.89c8.11,60.83 15.21,121.65 21.29,182.47 6.08,60.83 15.2,123.67 27.36,188.55 12.17,117.58 27.37,237.2 45.62,358.85 18.25,121.65 37.5,243.29 57.78,364.93 28.39,129.75 55.76,253.43 82.11,371.01 26.36,117.59 55.75,237.21 88.19,358.85l121.65 474.42 924.49 -109.48 596.05 -60.82 498.74 -54.74zm200.71 -1721.26c12.16,-8.11 17.24,-15.21 15.21,-21.28 -2.02,-6.09 -3.04,-13.18 -3.04,-21.29 -8.11,0 -12.16,2.03 -12.16,6.09 0,4.05 -4.05,2.03 -12.16,-6.09 -4.05,16.23 0,30.41 12.16,42.58zm279.79 152.05c4.05,-8.11 5.07,-12.16 3.04,-12.16 -2.03,0 -3.04,-4.05 -3.04,-12.16 -4.05,0 -6.09,4.05 -6.09,12.16 0,4.05 2.03,8.11 6.09,12.16zm6.08 -249.36c8.11,12.16 12.16,25.34 12.16,39.53 0,14.19 4.05,25.34 12.16,33.45 8.11,-8.11 9.13,-20.27 3.04,-36.49 -6.08,-16.22 -15.21,-28.38 -27.37,-36.49zm-754.19 -1271.18c28.38,-16.22 41.56,-24.33 39.53,-24.33 -2.03,0 -8.12,3.04 -18.25,9.12 -10.14,6.09 -19.26,11.15 -27.37,15.21 -8.11,4.05 -4.05,2.02 12.16,-6.09l0 -12.16c-4.05,0 -6.08,2.03 -6.08,6.09l0 12.16zm-8429.91 9506.45l6.09 0 12.16 0 -18.25 0zm133.81 -139.89c-8.11,0 -14.2,2.03 -18.25,6.09 -4.05,4.05 -8.11,6.08 -12.16,6.08 4.05,8.11 10.14,10.14 18.25,6.09 8.11,-4.05 14.19,-10.14 18.24,-18.25l-6.08 0zm6.08 103.4c4.05,0 8.11,-4.05 12.16,-12.16 -4.05,8.11 -8.11,12.16 -12.16,12.16zm535.24 -237.21c4.05,0 8.11,-2.02 12.16,-6.08 4.05,-4.05 8.11,-6.09 12.16,-6.09 -12.16,0 -20.27,4.05 -24.33,12.16zm10345.79 -6270.73c89.21,4.05 163.2,9.12 222,15.21 58.8,6.08 92.24,11.15 100.35,15.21 -4.05,56.76 -22.3,101.37 -54.73,133.8 -32.44,32.44 -68.94,58.8 -109.48,79.07 -44.6,20.27 -97.31,34.47 -158.14,42.58l-109.48 12.16c28.38,81.09 55.75,161.18 82.1,240.24 26.36,79.07 55.75,159.15 88.2,240.25 32.44,85.15 59.81,157.12 82.1,215.92 22.3,58.8 31.43,92.24 27.37,100.35 -52.71,24.34 -101.37,27.37 -145.97,9.13 -44.6,-18.25 -83.12,-43.59 -115.56,-76.03 -40.55,-36.5 -79.07,-83.12 -115.56,-139.9 -48.66,-89.2 -95.29,-177.39 -139.89,-264.57 -44.6,-87.18 -89.2,-175.37 -133.81,-264.58l-358.85 54.74c-48.66,8.11 -97.31,14.2 -145.97,18.25 -48.66,4.05 -95.29,8.11 -139.89,12.16 -28.38,48.66 -53.72,96.3 -76.03,142.93 -22.3,46.62 -45.61,94.27 -69.95,142.93 -40.55,81.09 -76.03,145.97 -106.43,194.63 -30.41,48.66 -49.68,75.01 -57.78,79.06 -48.66,-24.33 -81.09,-59.81 -97.31,-106.43 -16.22,-46.63 -24.33,-92.24 -24.33,-136.85 0,-52.71 10.13,-107.45 30.41,-164.22 8.11,-20.27 15.21,-41.56 21.29,-63.86 6.08,-22.3 13.18,-43.59 21.28,-63.86 -40.55,0 -79.07,0 -115.56,0 -36.49,0 -77.04,-2.03 -121.65,-6.09 -32.44,-4.05 -44.6,-35.48 -36.49,-94.27 8.11,-58.8 23.32,-122.66 45.62,-191.6 22.3,-68.93 44.6,-130.76 66.9,-185.5 22.3,-54.74 33.46,-82.11 33.46,-82.11 48.66,8.11 97.31,15.21 145.97,21.28 48.66,6.09 99.34,13.18 152.05,21.29 48.66,-158.14 97.31,-316.28 145.97,-474.42 48.66,-158.13 101.37,-316.27 158.13,-474.41 16.22,-28.38 51.7,-29.39 106.44,-3.04 54.74,26.36 110.49,59.81 167.26,100.36 36.49,-4.05 71.97,-6.09 106.44,-6.09 34.47,0 65.89,-2.02 94.28,-6.08 32.44,0 62.84,-2.03 91.23,-6.09 40.55,154.08 80.08,307.15 118.6,459.21 38.52,152.05 80.09,305.12 124.69,459.2l200.71 0zm-656.87 -12.16c-20.27,-36.49 -38.52,-75.01 -54.74,-115.56 -16.22,-40.55 -34.46,-81.09 -54.74,-121.65 -20.27,40.55 -40.55,80.08 -60.82,118.6 -20.27,38.52 -40.55,78.06 -60.82,118.6l54.74 0 176.38 0zm808.93 -821.1c0,-32.44 27.37,-48.66 82.11,-48.66 54.74,0 116.57,4.05 185.5,12.16 77.05,12.16 168.28,30.41 273.7,54.74l-66.91 1544.88c-8.11,81.09 -13.18,148 -15.2,200.71 -2.03,52.71 -5.07,81.1 -9.13,85.16 -56.76,0 -100.35,-16.23 -130.77,-48.66 -30.41,-32.44 -55.75,-66.91 -76.03,-103.4 -20.27,-44.6 -34.46,-93.26 -42.57,-145.97l-200.72 -1550.96zm541.31 -371.01c0,44.6 -1.01,83.12 -3.04,115.56 -2.03,32.44 -7.1,50.69 -15.21,54.74 -56.77,0 -100.36,-9.12 -130.77,-27.37 -30.41,-18.25 -55.75,-37.5 -76.03,-57.78 -20.27,-24.34 -36.5,-52.72 -48.66,-85.16l-267.61 -839.34c0,-16.22 27.37,-25.34 82.11,-27.37 54.74,-2.02 116.57,-1.01 185.5,3.04 77.05,4.05 168.28,12.16 273.7,24.33l0 839.34zm231.12 -845.43c0,-12.16 26.36,-19.25 79.07,-21.28 52.71,-2.02 113.54,-1.01 182.47,3.04 77.04,4.05 166.25,10.13 267.61,18.24l0 821.1c0,44.6 -2.02,82.11 -6.08,112.52 -4.05,30.41 -8.11,45.62 -12.16,45.62 -52.72,0 -94.28,-7.1 -124.69,-21.29 -30.41,-14.19 -55.75,-31.43 -76.03,-51.7 -20.27,-20.27 -36.49,-46.62 -48.66,-79.06l-261.54 -827.18zm85.16 1088.71c24.33,-4.05 51.7,-7.09 82.1,-9.12 30.41,-2.03 61.84,1.01 94.28,9.12 32.44,8.11 65.89,18.25 100.35,30.41 34.47,12.16 63.86,24.33 88.19,36.49 28.39,16.22 54.74,32.44 79.07,48.66 -8.11,206.79 -20.27,410.55 -36.49,611.26 -16.22,200.72 -30.41,402.44 -42.58,605.18l-103.4 1307.67c-28.38,44.61 -60.82,85.16 -97.31,121.65 -20.27,20.27 -42.58,36.49 -66.91,48.66 -24.33,12.16 -48.66,24.33 -72.98,36.49l-188.55 79.07 -316.27 139.89 -626.47 243.29c-190.58,81.09 -348.71,143.94 -474.41,188.54 -125.7,44.6 -196.66,66.91 -212.88,66.91 -20.27,-48.66 -1.01,-101.37 57.78,-158.14 58.8,-56.76 126.71,-109.48 203.75,-158.14 89.21,-56.76 194.63,-115.56 316.28,-176.38l608.22 -298.03 310.19 -145.97c20.27,-16.22 44.6,-31.43 72.98,-45.61 28.38,-14.2 48.66,-25.35 60.82,-33.46l54.74 -30.41c12.16,0 18.25,-6.09 18.25,-18.25 0,0 0,-8.11 0,-24.33l12.16 -1173.86c4.05,-206.79 6.08,-409.53 6.08,-608.22 0,-198.68 -4.05,-397.37 -12.16,-596.05 4.05,-60.83 32.44,-93.26 85.16,-97.32zm608.22 127.72c0,-32.44 27.37,-48.66 82.11,-48.66 54.74,0 116.57,4.05 185.5,12.16 77.05,12.16 168.28,30.41 273.7,54.74l-66.91 1544.88c-8.11,81.09 -13.18,148 -15.2,200.71 -2.03,52.71 -5.07,81.1 -9.13,85.16 -56.76,0 -100.35,-16.23 -130.77,-48.66 -30.41,-32.44 -55.75,-66.91 -76.03,-103.4 -20.27,-44.6 -34.46,-93.26 -42.57,-145.97l-200.72 -1550.96zm541.31 -371.01c0,44.6 -1.01,83.12 -3.04,115.56 -2.03,32.44 -7.1,50.69 -15.21,54.74 -56.77,0 -100.36,-9.12 -130.77,-27.37 -30.41,-18.25 -55.75,-37.5 -76.03,-57.78 -20.27,-24.34 -36.5,-52.72 -48.66,-85.16l-267.61 -839.34c0,-16.22 27.37,-25.34 82.11,-27.37 54.74,-2.02 116.57,-1.01 185.5,3.04 77.05,4.05 168.28,12.16 273.7,24.33l0 839.34zm-145.97 924.5c-20.27,-16.22 -20.27,-42.58 0,-79.07 20.27,-36.49 48.66,-75.01 85.16,-115.56 36.49,-40.55 77.04,-81.1 121.64,-121.65 44.61,-40.55 79.07,-70.96 103.4,-91.23l-30.41 -218.96c4.05,-28.38 35.48,-41.56 94.27,-39.53 58.8,2.03 122.66,9.12 191.6,21.28 68.93,12.17 131.78,25.35 188.54,39.53 56.76,14.2 85.16,21.29 85.16,21.29l-42.58 541.31c129.75,117.59 258.49,233.15 386.22,346.68 127.72,113.54 256.46,225.04 386.22,334.52 0,4.05 2.03,8.11 6.09,12.16 -32.44,-206.79 -63.86,-411.56 -94.28,-614.3 -30.41,-202.74 -67.92,-407.51 -112.52,-614.3 0,-28.38 29.39,-44.6 88.19,-48.66 58.8,-4.05 122.66,-2.02 191.59,6.09 81.09,8.11 174.36,22.3 279.78,42.57 0,267.62 -2.02,533.2 -6.08,796.77 -4.05,263.56 -8.11,529.15 -12.16,796.76 -4.05,85.16 -7.1,155.1 -9.12,209.84 -2.03,54.74 -7.1,86.17 -15.21,94.28 -56.77,0 -100.36,-16.22 -130.77,-48.66 -30.41,-32.44 -55.75,-66.9 -76.03,-103.4 -20.27,-44.6 -36.5,-93.26 -48.66,-145.97 0,-44.61 -2.02,-75.01 -6.08,-91.23 -32.44,0 -62.85,-4.05 -91.23,-12.16 -28.38,-8.11 -52.71,-16.22 -72.98,-24.33 -24.34,-12.16 -48.66,-24.34 -72.99,-36.5 -105.42,-64.87 -209.84,-130.77 -313.23,-197.67 -103.4,-66.91 -205.77,-132.8 -307.15,-197.67l-36.49 413.59c-8.11,77.04 -15.21,141.92 -21.28,194.63 -6.09,52.71 -13.18,81.09 -21.29,85.15 -52.71,-4.05 -94.27,-22.3 -124.68,-54.73 -30.41,-32.44 -53.73,-66.91 -69.95,-103.4 -16.22,-36.5 -27.37,-68.94 -33.45,-97.32 -6.09,-28.38 -9.12,-42.58 -9.12,-42.58l-72.99 -632.55c-60.82,-36.49 -123.67,-74 -188.54,-112.52 -64.88,-38.52 -127.72,-76.03 -188.55,-112.52z"/>
  <path class="fil0" d="M13189.08 5010.42c-39.77,0 -75.98,-9.65 -108.73,-28.84 -32.85,-19.11 -58.6,-45.04 -77.52,-77.71 -18.84,-32.67 -28.3,-68.6 -28.3,-107.74 0,-39.13 9.46,-75.06 28.3,-107.73 18.92,-32.67 44.68,-58.51 77.34,-77.34 32.67,-18.93 68.98,-28.31 108.92,-28.31 24.3,0 47.5,3.74 69.7,11.11 22.2,7.46 42.31,17.93 60.33,31.39 3.27,2.54 5,5.55 5,8.82 0,2.55 -1,5.1 -3,7.65l-47.5 62.24c-2.73,3.27 -5.64,5 -8.83,5 -2.55,0 -5.1,-0.91 -7.64,-2.64 -9.92,-6.91 -20.84,-12.29 -32.58,-16.29 -11.74,-4 -23.57,-6.01 -35.49,-6.01 -19.02,0 -36.67,4.92 -53.14,14.74 -16.47,9.92 -29.57,23.48 -39.49,40.68 -9.82,17.19 -14.83,36.21 -14.83,56.96 0,20.74 5,39.76 14.83,56.96 9.92,17.2 23.12,30.85 39.67,40.76 16.47,10.01 34.12,15.01 52.96,15.01 13.47,0 25.39,-1.73 35.67,-5.18 10.29,-3.37 21.29,-9.28 33.03,-17.75 2.73,-1.73 5.37,-2.63 7.92,-2.63 3.27,0 6.28,1.64 8.83,5l46.59 62.51c2.19,3.09 3.27,5.91 3.27,8.19 0,2.73 -1.45,5.27 -4.36,7.65 -18.2,13.92 -38.49,24.66 -60.79,32.12 -22.29,7.55 -45.67,11.37 -70.15,11.37zm360.85 -368.42c24.03,0 47.86,7.01 71.34,20.84 4.09,2.55 6.19,5.74 6.19,9.47 0,2.09 -0.63,4.36 -1.81,6.73l-33.76 63.34c-2.37,4.36 -5.37,6.46 -9.1,6.46 -2.37,0 -4.56,-0.63 -6.73,-2 -14.1,-7.82 -27.57,-11.74 -40.49,-11.74 -12.37,0 -24.11,3.54 -35.4,10.56 -11.19,7 -20.38,17.47 -27.39,31.21 -7.09,13.83 -10.64,30.39 -10.64,49.77l0 164.7c0,7.82 -3.92,11.74 -11.74,11.74l-76.25 0c-7.82,0 -11.74,-3.92 -11.74,-11.74l0 -331.66c0,-7.82 3.92,-11.74 11.74,-11.74l58.42 0c6.46,0 10.92,3 13.47,9.1l14.37 34.31c9.19,-15.28 21.56,-27.29 36.95,-36.12 15.46,-8.73 33.02,-13.2 52.59,-13.2zm240.75 369.88c-35.4,0 -67.25,-8.37 -95.45,-24.93 -28.12,-16.65 -50.14,-39.04 -65.88,-67.25 -15.74,-28.2 -23.56,-58.87 -23.56,-92.18 0,-33.67 7.46,-64.6 22.38,-92.9 15.01,-28.3 35.85,-50.77 62.7,-67.52 26.84,-16.74 57.23,-25.12 91.26,-25.12 36.85,0 68.7,7.92 95.72,23.84 27.02,15.83 47.59,37.77 61.78,65.7 14.2,28.02 21.28,59.78 21.28,95.44 0,7.83 -0.45,15.47 -1.18,23.12 -0.82,7.28 -4.91,10.92 -12.37,10.92l-239.22 0c6.46,19.56 17.56,34.75 33.21,45.77 15.65,10.92 33.49,16.47 53.41,16.47 12.74,0 24.2,-1.81 34.48,-5.45 10.29,-3.65 20.3,-8.83 30.12,-15.75 2.55,-1.91 5.1,-2.91 7.65,-2.91 3.09,0 5.92,1.73 8.46,5.28l36.12 51.41c1.73,2.55 2.63,4.92 2.63,7.28 0,3.37 -1.54,6.28 -4.73,8.83 -16.2,12.74 -34.4,22.57 -54.42,29.48 -20.1,7 -41.58,10.46 -64.42,10.46zm71.61 -224.29c-5.46,-19.38 -14.92,-34.21 -28.2,-44.59 -13.28,-10.37 -29.48,-15.56 -48.68,-15.56 -18.84,0 -35.12,5.28 -48.86,15.83 -13.83,10.56 -23.57,25.39 -29.21,44.32l154.96 0zm399.8 -130.57c2.54,-6.09 7.09,-9.1 13.55,-9.1l56.32 0c7.82,0 11.74,3.92 11.74,11.74l0 331.66c0,7.82 -3.92,11.74 -11.74,11.74l-58.42 0c-6.46,0 -10.92,-3 -13.47,-9.1l-7.37 -17.66c-24.47,22.93 -55.14,34.4 -92.18,34.4 -33.48,0 -64.24,-8.28 -92.45,-24.85 -28.2,-16.47 -50.5,-38.94 -66.88,-67.15 -16.47,-28.3 -24.65,-59.32 -24.65,-92.9 0,-33.48 8.19,-64.24 24.74,-92.35 16.57,-28.12 38.95,-50.32 67.06,-66.79 28.21,-16.38 58.97,-24.66 92.18,-24.66 37.4,0 68.43,11.65 93.09,34.95l8.46 -19.93zm-99.82 258.24c16.29,0 31.12,-3.73 44.49,-11.28 13.47,-7.55 24.03,-18.02 31.76,-31.39 7.74,-13.38 11.55,-28.48 11.55,-45.31 0,-17.01 -3.82,-32.39 -11.46,-45.95 -7.65,-13.65 -18.11,-24.3 -31.39,-32.12 -13.28,-7.82 -28.11,-11.74 -44.32,-11.74 -16.28,0 -30.93,3.82 -44.21,11.56 -13.2,7.73 -23.57,18.47 -31.03,32.12 -7.55,13.74 -11.38,29.12 -11.38,46.13 0,17.01 3.73,32.21 11.19,45.5 7.47,13.28 17.66,23.66 30.67,31.21 13.01,7.55 27.75,11.28 44.13,11.28zm346.85 76.06c0,7.82 -3.92,11.74 -11.74,11.74l-76.34 0c-7.82,0 -11.74,-3.92 -11.74,-11.74l0 -250.95 -29.39 0c-7.82,0 -11.74,-3.91 -11.74,-11.74l0 -68.97c0,-7.82 3.92,-11.74 11.74,-11.74l28.75 0 0 -63.96c0,-7.28 3.54,-11.56 10.64,-12.92l77.16 -15.01c0.82,-0.19 1.73,-0.28 2.91,-0.28 3.19,0 5.55,1 7.37,2.91 1.73,2.01 2.64,4.64 2.64,7.92l0 81.35 55.14 0c7.82,0 11.74,3.92 11.74,11.74l0 68.97c0,7.83 -3.92,11.74 -11.74,11.74l-55.41 0 0 250.95zm100.44 -381.61c-7.82,0 -11.74,-3.92 -11.74,-11.74l0 -68.97c0,-7.83 3.92,-11.74 11.74,-11.74l77.79 0c7.83,0 11.74,3.91 11.74,11.74l0 68.97c0,7.82 -3.91,11.74 -11.74,11.74l-77.79 0zm88.62 381.61c0,7.82 -3.91,11.74 -11.73,11.74l-76.34 0c-7.82,0 -11.74,-3.92 -11.74,-11.74l0 -331.66c0,-7.82 3.92,-11.74 11.74,-11.74l76.34 0c7.82,0 11.73,3.92 11.73,11.74l0 331.66zm261.59 2.36c-2.36,6.28 -6.83,9.38 -13.47,9.38l-76.34 0c-6.64,0 -11.19,-3.1 -13.46,-9.38l-128.3 -332.29c-0.82,-1.54 -1.19,-3.19 -1.19,-5 0,-2.55 0.91,-4.55 2.83,-6.1 1.81,-1.64 4.46,-2.36 7.73,-2.36l85.72 0c7,0 11.55,3.19 13.46,9.65l71.34 224.84 71.61 -224.84c2,-6.46 6.46,-9.65 13.56,-9.65l85.71 0c3.1,0 5.64,0.73 7.65,2.19 1.91,1.45 2.91,3.46 2.91,6.01 0,2 -0.36,3.73 -1.19,5.27l-128.57 332.29zm307.72 18.2c-35.4,0 -67.25,-8.37 -95.45,-24.93 -28.12,-16.65 -50.14,-39.04 -65.88,-67.25 -15.74,-28.2 -23.56,-58.87 -23.56,-92.18 0,-33.67 7.46,-64.6 22.38,-92.9 15.01,-28.3 35.85,-50.77 62.7,-67.52 26.84,-16.74 57.23,-25.12 91.26,-25.12 36.85,0 68.7,7.92 95.72,23.84 27.02,15.83 47.59,37.77 61.78,65.7 14.2,28.02 21.28,59.78 21.28,95.44 0,7.83 -0.45,15.47 -1.18,23.12 -0.82,7.28 -4.91,10.92 -12.37,10.92l-239.22 0c6.46,19.56 17.56,34.75 33.21,45.77 15.65,10.92 33.49,16.47 53.41,16.47 12.74,0 24.2,-1.81 34.48,-5.45 10.29,-3.65 20.3,-8.83 30.12,-15.75 2.55,-1.91 5.1,-2.91 7.65,-2.91 3.09,0 5.92,1.73 8.46,5.28l36.12 51.41c1.73,2.55 2.63,4.92 2.63,7.28 0,3.37 -1.54,6.28 -4.73,8.83 -16.2,12.74 -34.4,22.57 -54.42,29.48 -20.1,7 -41.58,10.46 -64.42,10.46zm71.61 -224.29c-5.46,-19.38 -14.92,-34.21 -28.2,-44.59 -13.28,-10.37 -29.48,-15.56 -48.68,-15.56 -18.84,0 -35.12,5.28 -48.86,15.83 -13.83,10.56 -23.57,25.39 -29.21,44.32l154.96 0z"/>
 </g>
</svg>
